<?xml version="1.0" encoding="utf-8"?>
<!-- Generator: Adobe Illustrator 26.0.0, SVG Export Plug-In . SVG Version: 6.00 Build 0)  -->
<svg version="1.1" id="Layer_1" xmlns:v="https://vecta.io/nano"
	 xmlns="http://www.w3.org/2000/svg" xmlns:xlink="http://www.w3.org/1999/xlink" x="0px" y="0px" viewBox="0 0 263.5 186.6"
	 style="enable-background:new 0 0 263.5 186.6;" xml:space="preserve">
<style type="text/css">
	.st0{fill:#9E1F63;}
	.st1{fill:#FFCB05;}
</style>
<g>
	<g>
		<path class="st0" d="M122,65.5c-0.1,0.5,0.1,1.5,0.7,2.7c2.4,6.1,6.5,9.6,12,10.2c4.5,0.5,8.6-0.9,13.3-4.5c1-0.9,1.8-1.1,2.4-1.1
			c1.2,0.1,2.1,1.2,2,2.6c-0.1,0.6-0.6,1.7-1.2,2.4c-5.2,6.8-14.3,10-24.5,8.9c-15.7-1.7-25.6-13.2-24-28.1
			c1.6-15.1,14-25.7,28.6-24.1c8.2,0.9,14.6,5.1,18.3,12.1c0.9,1.8,1.8,3.7,2.5,5.9c0.6,1.8,0.8,2.9,0.8,3.5c-0.1,0.6-0.5,1-1.1,1.1
			l-28.4,7.3C122.3,64.8,122,65,122,65.5z M122.3,57.8l12.6-3.2c0.8-0.3,1.1-0.6,1.1-0.9c0-0.4-0.1-1.7-0.6-3.4
			c-0.3-1.6-0.9-3-1.6-4.4c-1.5-2.4-3.7-4.1-5.8-4.4c-3.9-0.4-7.1,3.2-7.7,8.9c-0.2,2.3-0.1,4.6,0.4,6.4c0.1,0.8,0.5,1.1,0.7,1.1
			C121.5,57.9,121.8,57.8,122.3,57.8z"/>
		<path class="st0" d="M103.3,35c0.6,0,0.9,0.3,0.9,0.6c0,0.2-0.1,0.5-0.2,1l-1.7,4.5c-0.3,0.9-1,1.3-2,1.3h-12
			c-0.9,0-1.2,0.4-1.2,1.5v29.2c0,4.1,1.4,5.8,4.6,5.8c2.1,0,4.2-0.9,6-2.3c1.3-1,2.2-1.6,2.8-1.6c1.3,0,2.3,1.1,2.3,2.6
			c0,4.7-9.8,9.3-20,9.3c-9,0-13.7-2.8-13.7-7.6c0-0.7,0-10.2,0-13.9V44c0-1-0.5-1.5-1.3-1.5h-4.2c-1.5,0-2.3-0.9-2.2-2
			c0-0.5,0.1-1.9,2.7-3.5c7.4-4.2,13.3-10.5,17.7-16.8c1.1-1.5,2-2.1,3-2.1c1.3,0,2.3,1.2,2.3,2.7V35H103.3z"/>
		<g>
			<path class="st0" d="M199.8,37.9c-0.2-1.1-0.5-1.5-1.3-1.5c-0.3,0-0.7,0-0.9,0.2l-13.3,5.2c-1.4,0.5-2.3,1.8-2.3,3.3v42h17.9
				V75.9c0-0.6,0-1.2,0-1.9V37.9z"/>
			<path class="st1" d="M196.5,15.9c-5.3-1-12.3,3.6-14.9,9.7c-0.2,0.5-0.3,0.9-0.5,1.6c-0.7,3.5,0.9,6.2,4.3,6.9
				c3.1,0.6,7.6-1,10.8-4c2.2-2,3.9-4.9,4.4-7.2C201.3,19.1,199.7,16.5,196.5,15.9z"/>
			<path class="st1" d="M212.1,9.8c-3.3-0.7-7.8,2.3-9.4,6.1c-0.1,0.3-0.2,0.6-0.3,1c-0.4,2.2,0.6,3.9,2.7,4.3
				c2,0.4,4.8-0.6,6.8-2.5c1.4-1.3,2.5-3.1,2.8-4.6C215.2,11.9,214.1,10.2,212.1,9.8z"/>
			<path class="st1" d="M221.5,6.5c-1.8-0.4-4.3,1.2-5.2,3.4c-0.1,0.2-0.1,0.3-0.2,0.6c-0.2,1.2,0.3,2.1,1.5,2.4
				c1.1,0.2,2.6-0.3,3.7-1.4c0.8-0.7,1.4-1.7,1.5-2.5C223.2,7.6,222.6,6.7,221.5,6.5z"/>
		</g>
		<path class="st0" d="M175.5,76.1c0-0.5,0-1.2,0-2.1V7.9c-0.2-1.2-0.4-1.5-1.2-1.5c-0.4,0-0.7,0-1,0.1l-13.4,5.3
			c-1.4,0.5-2.3,1.8-2.3,3.3V87h17.9V76.1z"/>
		<path class="st0" d="M64.5,75.6c-0.2,0-0.4,0-0.5,0.1c0,0.1-0.1,0.3-0.3,0.6c-0.5,0.7-1.2,1.1-2.1,1.1c-2,0-3.7-2.8-5.1-8.2
			l-5.2-20.4c-2.3-9.3-8.6-13.9-18.6-13.9C16.2,34.9,13,49.7,13,49.7c1.4-2.5,5.3-7.3,13.2-7.3c4.1,0,6.6,2.9,7.8,8.2l1.5,5.8
			c-3.3-1.1-4.3-1.3-7.3-1.3c-12.7,0-20.9,6.2-20.9,15.8c0,9.4,8.1,16.1,19.5,16.1c5,0,10.9-1.7,13.7-3.9c0.7-0.5,1.1-0.9,1.3-1
			c0.2-0.1,0.4-0.2,0.5-0.2c0.3,0,0.4,0.1,0.6,0.3l0.9,1c2.4,2.5,5.6,3.7,9.7,3.7c7.1,0,12.3-3.8,12.3-9.2
			C65.8,76.2,65.4,75.6,64.5,75.6z M32.9,79.2c-4.9,0-8.5-4-8.5-9.4c0-4.9,3.3-8.6,7.7-8.6c1.9,0,3.2,0.4,5.2,1.6l2.1,8.9
			c0.2,0.7,0.3,1.5,0.3,2.2C39.5,76.9,36.7,79.2,32.9,79.2z"/>
		<g>
			<path class="st0" d="M225,65.5c-0.1,0.5,0.1,1.5,0.7,2.7c2.4,6.1,6.5,9.6,12,10.2c4.5,0.5,8.6-0.9,13.3-4.5
				c1-0.9,1.8-1.1,2.4-1.1c1.2,0.1,2.1,1.2,2,2.6c-0.1,0.6-0.6,1.7-1.2,2.4c-5.2,6.8-14.3,10-24.5,8.9c-15.7-1.7-25.6-13.2-24-28.1
				c1.6-15.1,14-25.7,28.6-24.1c8.2,0.9,14.6,5.1,18.3,12.1c0.9,1.8,1.8,3.7,2.5,5.9c0.6,1.8,0.8,2.9,0.8,3.5
				c-0.1,0.6-0.5,1-1.1,1.1l-28.4,7.3C225.3,64.8,225,65,225,65.5z M225.3,57.8l12.6-3.2c0.8-0.3,1.1-0.6,1.1-0.9
				c0-0.4-0.1-1.7-0.6-3.4c-0.3-1.6-0.9-3-1.6-4.4c-1.5-2.4-3.7-4.1-5.8-4.4c-3.9-0.4-7.1,3.2-7.7,8.9c-0.2,2.3-0.1,4.6,0.4,6.4
				c0.1,0.8,0.5,1.1,0.7,1.1C224.5,57.9,224.8,57.8,225.3,57.8z"/>
			<path class="st0" d="M241.3,32.6C241.3,32.6,241.3,32.6,241.3,32.6l-6.8-1.3l-2.1-2.1l-1.8,2l-9.8,1.4l7.5-7.7
				c0.2-0.3,0.3-0.3,0.9-0.3h4.5c0.5,0,0.6,0,0.7,0.3L241.3,32.6z"/>
		</g>
	</g>
	<g>
		<path class="st0" d="M125.6,132.9c8.6,6.1,11.9,14.1,9.6,23.8c-0.8,3.4-2.1,6.5-3.9,9.4c-1.8,2.9-4,5.4-6.5,7.6
			c-2.5,2.2-5.4,3.8-8.5,5.1c-3.1,1.2-6.3,1.8-9.5,1.8c-3.2,0-6-0.5-8.5-1.6c-2.5-1-4.6-2.5-6.2-4.3c-1.6-1.8-2.7-4-3.3-6.5
			c-0.6-2.5-0.6-5.2,0.1-8.1c2-9,8.9-16.4,20.7-22.2c-7.6-5.5-10.5-12.4-8.6-20.9c0.7-2.9,1.8-5.8,3.4-8.4c1.6-2.7,3.7-5,6.1-7.1
			c4.7-4,9.9-6,15.5-6c4.9,0,9,1.5,12.2,4.5c1.9,1.9,3.2,4,3.8,6.5c0.7,2.5,0.7,5.2,0,8c-0.8,3.7-2.6,7.1-5.2,10.1
			C134.2,127.8,130.4,130.5,125.6,132.9z M113,140.2c-4.1,2.3-7.4,5.1-10,8.5c-2.6,3.3-4.3,7.1-5.2,11.2c-1.1,4.9-0.7,8.8,1.2,11.6
			c1.9,2.8,5,4.3,9.3,4.3c4.3,0,8-1.4,11.2-4.2c3.2-2.8,5.3-6.5,6.3-11.3c0.4-1.6,0.5-3.1,0.4-4.4c-0.1-1.4-0.5-2.7-1.1-4
			c-0.6-1.3-1.5-2.6-2.7-3.9c-1.2-1.3-2.8-2.7-4.6-4.1L113,140.2z M122.1,130.6c3.2-2.1,5.8-4.5,7.9-7.1c2.1-2.7,3.4-5.5,4.1-8.4
			c0.5-2.1,0.6-4,0.3-5.8c-0.3-1.8-0.8-3.4-1.7-4.7c-0.9-1.3-2-2.4-3.4-3.1c-1.4-0.8-3-1.1-4.9-1.1c-3.5,0-6.6,1.2-9.2,3.5
			c-2.6,2.3-4.3,5.3-5.2,9.1c-0.6,2.9-0.3,5.5,1,7.8c1.3,2.3,3.7,4.8,7.3,7.3L122.1,130.6z"/>
		<path class="st0" d="M194.7,151.7c-0.9,4-2.4,7.8-4.5,11.3c-2.1,3.5-4.6,6.6-7.4,9.2c-2.9,2.6-6,4.7-9.3,6.2
			c-3.4,1.5-6.8,2.3-10.2,2.3c-3.6,0-6.6-0.9-9.2-2.8c-2.6-1.8-4.6-4.4-6-7.7c-1.4-3.3-2.2-7.2-2.3-11.8c-0.2-4.6,0.4-9.6,1.7-15.2
			c1.5-6.5,3.7-12.7,6.5-18.5c2.9-5.8,6.2-10.9,9.9-15.2c3.7-4.4,7.6-7.8,11.9-10.3c4.2-2.5,8.4-3.8,12.5-3.8c2.3,0,4.3,0.3,6.2,0.9
			c1.8,0.6,3.4,1.3,4.7,2.3c1.3,1,2.1,2.1,2.7,3.5c0.5,1.4,0.6,2.8,0.3,4.3c-0.4,1.7-1.2,3.1-2.3,4.1c-1.1,1-2.5,1.5-4.1,1.5
			c-1.8,0-3-0.6-3.5-1.8c-0.5-1.2-0.9-2.6-1.3-4c-0.4-1.5-0.9-2.8-1.7-4c-0.8-1.2-2.4-1.8-4.8-1.8c-2.2,0-4.4,0.9-6.6,2.6
			c-2.2,1.7-4.4,4.1-6.4,7.1c-2.1,3-4,6.6-5.7,10.8c-1.7,4.2-3.1,8.7-4.2,13.5l0.2,0.2c2.8-3.4,5.5-5.8,8.2-7.4
			c2.7-1.5,5.7-2.3,8.9-2.3c3.2,0,6,0.7,8.4,2.1c2.4,1.4,4.3,3.3,5.8,5.7c1.4,2.4,2.4,5.3,2.7,8.5
			C195.9,144.3,195.6,147.9,194.7,151.7z M157.8,149.1c-4.1,17.8-1.7,26.8,6.9,26.8c4.3,0,8-1.9,10.9-5.8c3-3.8,5.4-9.8,7.3-18
			c1.7-7.2,1.9-12.7,0.8-16.4c-1.1-3.7-3.7-5.6-7.6-5.6c-2.9,0-5.7,1.1-8.4,3.2c-2.7,2.2-5.6,5.6-8.8,10.5L157.8,149.1z"/>
		<path class="st0" d="M255.1,98.7l0.5-2.2H228c-2.9,0-4.8-0.2-5.6-0.6c-0.8-0.4-1.1-1.3-0.8-2.5c0.1-0.5,0.3-1.1,0.5-1.8
			c0.2-0.7,0.4-1.2,0.6-1.6H219l-13.6,30.2h3.6l2.4-4.2c1.1-2,2.1-3.6,2.9-4.7c0.9-1.2,1.8-2,2.9-2.6c1.1-0.6,2.4-1,3.9-1.2
			c1.5-0.2,3.5-0.3,6-0.3h17.5l-19.4,28.2c-3.9,5.8-7.2,10.7-10,14.7c-2.8,4.1-6.1,9.2-7.9,12c0,0-5.7,8-6,12.3
			c-0.5,7.6,6.3,7.6,10.7,3.9c4.4-3.7,2.7-9.2,1.3-10.1c-1.4-0.9-3.2,0.2-3.7,1.2c-0.9,2.1-2.2,2.8-2.6,2.7
			c-1.4-0.4-0.2-2.8,1.4-5.4C221.8,146.4,252.4,103.1,255.1,98.7z"/>
	</g>
</g>
</svg>
