<?xml version="1.0" encoding="utf-8"?>
<!-- Generator: Adobe Illustrator 26.0.0, SVG Export Plug-In . SVG Version: 6.00 Build 0)  -->
<svg version="1.1" id="Layer_1" xmlns:v="https://vecta.io/nano"
	 xmlns="http://www.w3.org/2000/svg" xmlns:xlink="http://www.w3.org/1999/xlink" x="0px" y="0px" viewBox="0 0 373.5 173.9"
	 style="enable-background:new 0 0 373.5 173.9;" xml:space="preserve">
<style type="text/css">
	.st0{fill-rule:evenodd;clip-rule:evenodd;fill:#1D1D1B;}
	.st1{fill-rule:evenodd;clip-rule:evenodd;fill:#F48120;}
	.st2{fill:#F48120;}
</style>
<g>
	<path class="st0" d="M24.4,18.8v0.1h8.9c6.6,0,12.5,2,17.1,5.7c4.4,3.5,7.1,8.3,7.1,13.7c0,4.8-2.3,9.3-6,12.8l0.6,0.4
		c4.7,3.7,7.5,8.9,7.5,14.6S56.7,76.7,52,80.4c-4.7,3.7-11.1,6-18.2,6h-9.5v0.1H9.1V18.8H24.4z M24.4,31.2v14.1h8.9
		c2.6,0,4.7-0.7,6.2-2c1.7-1.2,2.6-2.9,2.6-4.9c0-2-0.9-3.7-2.6-5.1c-1.7-1.3-3.8-2-6.2-2H24.4z M24.4,57.8v16.4h9.5
		c2.9,0,5.4-1,7.2-2.4c1.8-1.6,3-3.5,3-5.8c0-2.3-1.2-4.3-3-5.8c-1.8-1.6-4.2-2.4-7.2-2.4H24.4z M85.5,55.6l-3.9-11.7l-3.9,11.7
		H85.5z M74.8,67.3l-2,5.8H61.1l14.6-40.9h11.7L102,73.1H90.3l-2.1-5.8H74.8z M123.7,43.9v29.2H112V43.9H99V32.2h38v11.7H123.7z
		 M139.9,52.7V32.2h11.7v20.5c0,5.8,1.9,8.8,5.8,8.8c3.9,0,5.8-2.9,5.8-8.8V32.2H175v20.5c0,13.6-5.8,20.5-17.5,20.5
		C145.8,73.1,139.9,66.3,139.9,52.7z M212.8,67.2c-4,4-8.8,6-14.5,6c-5.7,0-10.5-2-14.5-6c-4-4-6-8.8-6-14.5c0-5.6,2-10.5,6-14.5
		c4-4,8.8-6,14.5-6c5.6,0,10.5,2,14.5,6c2,2,3.5,4.2,4.5,6.7l-10.7,5c-0.4-1.2-1.1-2.4-2.1-3.4c-1.7-1.7-3.8-2.6-6.2-2.6
		c-2.4,0-4.5,0.9-6.2,2.6c-1.7,1.7-2.6,3.8-2.6,6.2c0,2.4,0.9,4.5,2.6,6.2c1.7,1.7,3.8,2.6,6.2,2.6c2.4,0,4.5-0.9,6.2-2.6
		c0.9-0.9,1.6-2,2-3.2l10.7,4.8C216.3,62.9,214.8,65.1,212.8,67.2z M241.1,55.6l-3.9-11.7l-3.9,11.7H241.1z M230.5,67.3l-2,5.8
		h-11.7l14.6-40.9H243l14.6,40.9H246l-2.1-5.8H230.5z M272.3,43.9v17.5h8.8c3.9,0,5.8-2.9,5.8-8.8c0-5.8-2-8.8-5.8-8.8H272.3z
		 M260.6,73.1V32.2H281c11.7,0,17.5,6.8,17.5,20.5c0,13.6-5.8,20.5-17.5,20.5H260.6z M308.2,86.4h-14.8l22.6-66.8h18l22.6,66.8
		h-14.8l-16.8-53.2L308.2,86.4z M24.4,18.8H9.1H24.4z"/>
	<path class="st1" d="M213.6,15.5c1.2,0,2.2,1,2.2,2.5c0,1.4-1,2.5-2.2,2.5c-1.2,0-2.3-1.1-2.3-2.5
		C211.3,16.5,212.3,15.5,213.6,15.5 M213.6,13.1c-3,0-5.2,2-5.2,4.8c0,2.8,2.2,4.9,5.2,4.9s5.2-2.1,5.2-4.9
		C218.7,15.2,216.5,13.1,213.6,13.1z M198.3,18h-1.4v-2.6h1.4c0.8,0,1.3,0.5,1.3,1.3C199.6,17.5,199.1,18,198.3,18z M198.4,13.2
		h-4.3v9.5h2.8v-2.6h1.5c2.5,0,3.9-1.3,3.9-3.6C202.3,14.4,200.9,13.2,198.4,13.2z M181,18.7v-5.5h-2.8v5.5c0,2.5,1.8,4.1,4.5,4.1
		c2.7,0,4.4-1.6,4.4-4.1v-5.5h-2.8v5.5c0,1.1-0.7,1.8-1.6,1.8C181.8,20.5,181,19.8,181,18.7z M165.8,15.4h1.6c0.8,0,1.3,0.5,1.3,1.3
		c0,0.9-0.5,1.3-1.3,1.3h-1.6V15.4z M171.7,22.7l-1.9-3.1c1-0.6,1.6-1.6,1.6-3c0-2.2-1.5-3.4-4-3.4H163v9.5h2.8v-2.6h1.5l1.3,2.6
		H171.7z M153.6,20.1c-0.5,0.2-1,0.4-1.4,0.4c-1.4,0-2.4-1.1-2.4-2.5c0-1.4,1-2.5,2.4-2.5c0.8,0,1.8,0.4,2.4,1l1.6-1.9
		c-1-0.9-2.6-1.4-4-1.4c-3.1,0-5.3,2.1-5.3,4.8c0,2.8,2.2,4.9,5.1,4.9c1.4,0,3-0.5,4.1-1.2v-3.8h-2.4V20.1z M147.5,9.9h70.6
		c4.5,0,8.1,3.7,8.1,8.1c0,4.5-3.7,8.1-8.1,8.1h-70.6c-4.5,0-8.1-3.7-8.1-8.1C139.4,13.5,143,9.9,147.5,9.9z"/>
	<path class="st1" d="M148.4,68.5l0.4,0.6c3.4,5.3,5.5,11.4,6.4,18.2c0.9,6.8,0.8,13.5-0.5,20.1c-1.3,6.6-3.2,13-5.9,19.3
		c-2.7,6.2-5.9,11.8-9.7,16.7c-6.6,8.5-29.3,31.6-40.3,14.2c-1.3-2-1.4-5-0.4-9c0.6-2.5,1.1-3.8,1.5-4c0.2-0.1,0.4,0,0.6,0.3
		c0,0.1,0.2,0.5,0.5,1.2c0.4,1.4,1.1,2.9,2,4.3c12.3,19.5,41.7-28.9,41-52.8c-0.3-8.7-2.4-16.2-6.3-22.5c-0.6-1-1.5-2.5-3.2-4.2
		C114.1,50.6,86,75.2,81.4,99.8c-1.5,7.9,1.4,15.8,4.5,20.7c1.1,1.8,2.6,3.3,4.5,4.6c0.8,1.4,0.1,2.5-1.9,3.6
		c-0.9,0.5-2,0.7-3.2,0.8c-5.2-0.6-9.1-2.9-11.6-6.9c-2.4-3.8-3.4-8.7-3-14.5C74,67.2,127,34.4,148.4,68.5 M106.8,73.4
		c0.7-0.3,1.4-0.4,2.1-0.3c0.8,0.1,1.8,0.6,3.1,1.5c1.3,0.9,2.5,2.3,3.7,4.2l0.2,0.3c0.1,0.1,0.1,0.4,0,0.9
		c-0.1,0.5-0.2,1.2-0.3,2.3c-0.2,1.1-0.3,2.1-0.4,3.1c-1.5,4.8-2.3,14.6-2.4,29.2c0,14.7,1.2,24,3.8,28.1l0.2,0.3
		c0.3,0.4,0.2,0.7-0.1,0.9c-0.9,0.5-2.6,0.3-5.2-0.6c-2.6-0.9-4.3-2-5.1-3.4l-0.1-0.1l-0.2-0.3c-2.8-4.4-3.7-17.6-2.7-39.7
		c-0.2-0.2-0.4-0.4-0.6-0.7c-0.4-0.6-0.6-1.1-0.7-1.5c-0.2-1.2,0.1-4.9,1-11.1c0.8-6.2,1.9-10.4,3.1-12.5c0.1-0.2,0.2-0.4,0.5-0.5
		L106.8,73.4z"/>
	<path class="st2" d="M217.6,103C227.6,97,242.4,88,248,85.3l0,0l0,0l0.2-0.1l0.2-0.1l0.2-0.1l0.2-0.1l0.1-0.1c0,0,0,0,0.1,0
		l0.1-0.1l0.2-0.1l0,0l0,0l0.2-0.1l0.1-0.1c0,0,0,0,0,0l0.2-0.1l0,0l0.1-0.1c0,0,0,0,0,0l0.2-0.1c0,0,0,0,0,0l0.2-0.1l0,0l0,0
		l0.2-0.1l0.2-0.1l0.2-0.1l0.2-0.1l0.2-0.1c0,0,0,0,0.1,0l0.1-0.1c0,0,0,0,0.1,0l0.1-0.1c0,0,0,0,0.1,0l0.1-0.1l0.2-0.1l0.2-0.1
		l0.2-0.1l0,0l0,0l0.1-0.1c0,0,0,0,0.1,0l0.1-0.1l0.1-0.1c0,0,0,0,0,0l0.2-0.1c0,0,0,0,0,0l0.2-0.1l0,0l0,0l0.2-0.1c0,0,0,0,0,0
		l0.1-0.1c0,0,0,0,0,0l0.1-0.1c0,0,0,0,0.1,0l0.1-0.1c0,0,0,0,0.1,0l0.2-0.1l0.2-0.1c0,0,0,0,0.1,0l0.2-0.1l0,0l0,0l0.1-0.1
		c0,0,0,0,0.1,0l0.1-0.1l0.2-0.1l0.1-0.1c0,0,0,0,0.1,0l0.1-0.1l0,0l0,0l0.1-0.1c0,0,0,0,0.1,0l0.1-0.1l0.1-0.1c0,0,0,0,0.1,0
		l0.2-0.1l0.2-0.1l0.2-0.1c0,0,0,0,0,0l0.1-0.1c0,0,0,0,0,0l0.2-0.1l0.2-0.1c0,0,0,0,0.1,0l0.1-0.1c0,0,0,0,0.1,0l0.2-0.1l0.2-0.1
		l0,0l0,0l0.1-0.1c0,0,0,0,0.1,0l0.1-0.1c0,0,0,0,0.1,0l0.1-0.1l0.1-0.1c0,0,0,0,0.1,0l0.1-0.1l0.2-0.1l0,0l0,0l0.2-0.1l0.2-0.1
		l0.1-0.1c0,0,0,0,0,0l0.2-0.1l0.2-0.1c1.2-0.5,2.4-1,3.6-1.5c1.2-0.5,2.4-0.9,3.6-1.4c2.2-0.9,4.4-1.7,6.6-2.5
		c2.2-0.8,4.4-1.5,6.6-2.2c2.8-0.9,5.6-1.8,8.4-2.5c2.7-0.8,5.5-1.5,8.2-2.1c2.3-0.5,4.6-1,6.9-1.5c2.2-0.4,4.5-0.8,6.6-1.2
		c1-0.1,2-0.3,3-0.4c1-0.1,1.9-0.2,2.9-0.3c2-0.2,4.1-0.4,6-0.5c2-0.1,3.9-0.2,5.7-0.2c1.4,0,2.7,0,4.1,0.1c1.3,0.1,2.6,0.1,3.9,0.3
		c2.6,0.2,5.1,0.6,7.5,1.2c2.3,0.5,4.5,1.2,6.6,2c7.3,2.8,12.9,7.3,16.3,13.9c3.1,6.1,4.2,13.9,2.9,23.8c0,0.1-0.1,0.2-0.2,0.3
		c-2.2,1.3-4.5,3.1-6.6,5.3c-2.1,2.1-4,4.6-5.8,7.4c-0.1,0.2-0.3,0.2-0.4,0.2c-0.2,0-0.4-0.3-0.3-0.5c1.6-8.1,1.7-15,0.6-20.8
		c-1.2-6.1-3.8-10.9-7.5-14.6c-3.7-3.7-8.5-6.3-14.2-8c-6-1.7-13-2.4-20.7-2.1c-0.6,0-1.3,0.1-1.9,0.1c-0.6,0-1.3,0.1-1.9,0.1
		c-2.5,0.2-5,0.5-7.5,0.8c-2.6,0.4-5.3,0.8-7.9,1.4c-1.4,0.3-2.7,0.6-4.1,0.9c-1.4,0.3-2.8,0.6-4.2,1c-3,0.8-6.1,1.6-9.2,2.6
		c-3.1,1-6.3,2-9.5,3.1c-1,0.3-1.9,0.7-2.9,1c-1,0.4-1.9,0.7-2.9,1.1c-1.9,0.7-3.9,1.5-5.8,2.3c-1.9,0.8-3.9,1.6-5.8,2.5
		c-6,2.7-19.3,10.5-29.8,16.7c1.4,2.5,1.9,6,1.7,10l0,0l0,0c0,0.4-0.1,0.8-0.1,1.3c0,0.4-0.1,0.9-0.2,1.3c-0.4,2.4-0.9,4.6-1.6,6.8
		c-0.7,2.2-1.5,4.3-2.5,6.3c0,0,0,0,0,0c-1.5,2.9-3.2,5.3-5.1,7.2c-1.9,1.9-4.1,3.3-6.5,4.3c-1.1,0.4-2.2,0.7-3.3,0.9
		c-1.1,0.2-2.2,0.2-3.2,0.1l0,0c-1.4-0.1-2.6-0.6-3.6-1.5c-1-0.9-1.8-2.1-2.4-3.8c-0.2-0.6-0.4-1.2-0.5-1.7
		c-0.1-0.6-0.2-1.1-0.2-1.6c-0.1-5.6,1.4-11.9,4.5-16.6c1.3-2,2.9-3.8,4.7-5.5c2.1-2,4.1-3.5,6.6-5c0.4-0.2,0.8-0.5,1.2-0.7
		c-1.1-0.4-2.2-0.6-3.2-0.7c-1.2-0.1-2.4,0.1-3.4,0.5c-0.4,0.2-0.9,0.4-1.3,0.6c-0.4,0.3-0.8,0.6-1.2,0.9c-0.4,0.4-0.7,0.7-1,1.1
		c-0.3,0.4-0.5,0.7-0.7,1.1c-0.2,0.4-0.4,0.8-0.6,1.1c-0.2,0.4-0.3,0.7-0.4,1.1c-0.1,0.4-0.2,0.7-0.3,1c-0.1,0.3-0.1,0.5-0.2,0.8
		c0,0,0,0,0,0.1l-0.2,0.7c0,0.1-0.1,0.2-0.3,0.3c-0.7,0.3-1.4,0.4-2.1,0.3c-0.7-0.1-1.3-0.3-2-0.7c-0.6-0.4-1.1-0.8-1.5-1.3
		c-0.4-0.5-0.7-1-1-1.6c-0.1-0.3-0.2-0.5-0.2-0.8c0-0.3,0-0.5,0-0.8c0.1-0.3,0.3-0.9,0.8-2c0.5-1,1.2-2.4,2.1-4.2
		c1-1.9,2.1-3.9,3.2-6c1.2-2.2,2.5-4.7,4.1-7.5c1.5-2.7,2.7-5,3.8-7.1c0.8-1.5,1.5-2.7,2-3.8l-9,3.4l0,0c-1.2,0.5-2.1,1.2-2.8,2
		c-0.7,0.8-1.1,1.8-1.3,3c-0.5,3.9-1.2,8.2-2,12.4c-0.7,3.5-1.4,6.8-2.3,9.9c-0.6,2.1-1.4,4.3-2.3,6.4c-0.9,2.1-2,4.2-3.2,6.3l0,0
		l0,0c-1.4,2.2-3,4-4.6,5.4c-1.7,1.4-3.4,2.5-5.3,3.2c-0.9,0.3-1.8,0.6-2.8,0.8c-0.9,0.2-1.9,0.3-2.8,0.3c0,0,0,0-0.1,0l0,0
		c-1.7-0.3-3.3-1.1-4.6-2.4c-1.3-1.3-2.4-3-3.2-5.3c-1.5-3.9-2.2-8.7-2-14.2c0.1-2.8,0.4-5.4,0.8-7.9c0.5-2.5,1.1-4.9,1.9-7.1
		c0.8-2.3,1.8-4.1,2.9-5.5c1.1-1.4,2.3-2.4,3.6-2.9l0,0l0,0c1.2-0.4,2.4-0.6,3.6-0.4c1.2,0.2,2.4,0.6,3.6,1.3c2.4,1.5,4,3.4,4.9,5.7
		c0.1,0.2,0.2,0.5,0.2,0.8c0.1,0.3,0.1,0.6,0.2,0.9l0,0c0.2,1.2,0.2,2.6,0,4.1c-0.2,1.5-0.7,3.1-1.5,4.8c-0.7,1.8-1.6,3.2-2.6,4.3
		c-1,1.1-2.2,2-3.5,2.5l-0.2,0.1l0,0c-1.1,0.4-2.1,0.4-3,0.2c-0.7-0.2-1.3-0.5-1.9-1c-0.3,2.6-0.3,4.9-0.2,6.9c0.1,2.2,0.5,4,1,5.5
		c0.3,0.7,0.6,1.3,1,1.8c0.4,0.5,0.8,0.8,1.3,1.1c0.4,0.1,0.8,0.2,1.3,0.1l0,0v0c0.4,0,0.9-0.1,1.3-0.3c1-0.4,1.9-1,2.9-1.9
		c1-0.9,2-2.1,3-3.6l0,0c3-4.6,5.2-10.6,6.9-16.7c1.7-6.2,2.8-12.7,3.6-18.3l0,0c0.2-1.4,0.4-2.5,0.6-3.4c0.2-0.9,0.5-1.6,0.8-2
		c0.3-0.4,0.9-0.8,1.8-1.3c0.8-0.4,1.9-0.9,3.3-1.5l14.1-5.4c0.5-0.2,1.1-0.1,1.8,0.2c0.6,0.3,1.3,0.7,2.2,1.4
		c0.8,0.7,1.5,1.3,2,1.8c0.5,0.6,0.9,1.2,1.1,1.7c0.1,0.1,0.1,0.3,0.1,0.4l0,0c0,0.2,0,0.3,0,0.4c0,0,0,0,0,0.1l-14,23.6
		c0.3-0.2,0.7-0.3,1.2-0.5c1-0.4,2.1-0.7,3.2-0.9c1.1-0.2,2.3-0.3,3.6-0.4h0l0,0C213.7,101.1,216,101.8,217.6,103 M196.8,133.5
		c0,0.9,0.2,1.8,0.4,2.4l0,0c0.3,0.8,0.8,1.3,1.4,1.6c0.7,0.2,1.5,0.1,2.6-0.3l0,0c0.4-0.2,0.9-0.4,1.5-0.8c0.6-0.3,1.2-0.8,2-1.3
		c1.4-1.3,2.8-2.9,4-4.7c1.2-1.8,2.3-3.8,3.4-6c1-2.2,1.7-4.3,2-6.3c0.3-2,0.4-3.8,0-5.5c0,0,0,0,0-0.1c0-0.2-0.1-0.5-0.2-0.8
		c-0.1-0.3-0.2-0.7-0.4-1.1l-0.1-0.4l-0.6,0.2C204.2,113.9,196.5,124.1,196.8,133.5z M168.1,106.6c0.2,0,0.3-0.1,0.5-0.1
		c0.3-0.1,0.6-0.2,0.9-0.3c1.3-0.5,2.4-1.3,3.3-2.4c0.9-1.2,1.7-2.7,2.3-4.5l0,0c0.3-1,0.5-1.9,0.6-2.7c0.1-0.7,0-1.2-0.1-1.6
		c-0.1-0.2-0.2-0.4-0.4-0.5c-0.2-0.1-0.4-0.1-0.6-0.1l-0.4,0.2c-0.6,0.2-1.2,0.7-1.7,1.3c-0.6,0.7-1.2,1.6-1.7,2.8
		c-0.6,1.2-1.1,2.5-1.5,3.9C168.8,103.8,168.4,105.1,168.1,106.6z M172.2,113L172.2,113 M258.2,80.7
		C258.2,80.7,258.2,80.7,258.2,80.7 M172.2,113c-0.2,0.1-0.4,0-0.5-0.2"/>
</g>
</svg>
