<?xml version="1.0" encoding="utf-8"?>
<!-- Generator: Adobe Illustrator 26.0.0, SVG Export Plug-In . SVG Version: 6.00 Build 0)  -->
<svg version="1.1" id="Layer_1" xmlns="http://www.w3.org/2000/svg" xmlns:xlink="http://www.w3.org/1999/xlink" x="0px" y="0px"
	 viewBox="0 0 368 192" style="enable-background:new 0 0 368 192;" xml:space="preserve">
<style type="text/css">
	.st0{fill:#F26532;}
</style>
<g>
	<g>
		<path d="M288.73,171.26c4.76-2.76,9.44-5.46,14.16-8.19c0.15,0.2,0.28,0.35,0.37,0.52c2.41,4.07,6.09,6.1,10.71,6.36
			c1.92,0.11,3.93,0,5.8-0.42c5.07-1.14,7.99-4.83,8.26-10.22c0.1-1.95,0.02-3.9,0.02-5.93c-0.11,0.07-0.22,0.1-0.27,0.17
			c-3.74,4.39-8.59,6.39-14.25,6.75c-16.16,1.02-26.19-11.13-28.23-21.77c-1.61-8.4-0.42-16.3,4.71-23.34
			c4.62-6.33,10.76-10.22,18.64-11.03c5.41-0.56,10.67,0,15.3,3.19c1.46,1.01,2.74,2.3,4.11,3.47c0-1.68,0-3.43,0-5.25
			c5.42,0,10.77,0,16.2,0c0.01,0.32,0.04,0.63,0.04,0.93c0,17.39,0.03,34.78-0.02,52.18c-0.02,5.8-1.31,11.29-5.08,15.9
			c-3.37,4.14-7.77,6.84-12.82,8.38c-8.71,2.66-17.41,2.48-25.89-0.97C295.33,179.89,291.5,176.19,288.73,171.26z M301.32,132.14
			c-0.02,2.25,0.38,4.42,1.5,6.38c2.26,3.95,5.78,5.94,10.23,6.38c8.14,0.82,14.39-4.12,14.96-11.31c0.4-5.02-1.14-9.19-5.42-12.09
			c-2.58-1.75-5.5-2.25-8.56-2.19C306.61,119.45,301.32,124.79,301.32,132.14z"/>
		<path d="M117.39,162.55c-16.65,0.19-29.1-13.37-29.47-28.46c-0.41-16.89,13.14-29.79,28.59-30.17
			c16.76-0.41,30.05,12.91,30.27,28.85C147.02,149.27,133.75,162.73,117.39,162.55z M130.04,133.61c0-0.32,0.01-0.64,0-0.96
			c-0.21-5.04-2.39-8.95-6.98-11.14c-4.55-2.17-9.12-1.87-13.29,1.11c-4.37,3.11-6.13,8.71-4.7,14.36
			c1.59,6.27,7.37,10.02,14.19,9.22C125.43,145.47,130.02,140.11,130.04,133.61z"/>
		<path d="M27.67,106.18c2.85,0,5.55,0,8.26,0c3.06,0,6.11,0.02,9.17-0.02c0.66-0.01,0.95,0.19,1.18,0.82
			c3.82,10.61,7.67,21.21,11.52,31.82c0.12,0.32,0.24,0.65,0.44,1.18c0.47-1.5,0.88-2.81,1.28-4.12c2.97-9.67,5.94-19.34,8.9-29.02
			c0.14-0.44,0.27-0.68,0.81-0.67c5.59,0.02,11.18,0.01,16.77,0.02c0.09,0,0.17,0.02,0.33,0.05c-0.07,0.26-0.12,0.5-0.21,0.73
			c-6.36,18.04-12.68,36.09-19.09,54.11c-1.9,5.35-4.52,10.34-8.42,14.56c-4.13,4.46-9.26,6.98-15.22,7.79
			c-2.46,0.34-4.97,0.37-7.52,0.54c0-5.36,0-10.47,0-15.62c1.37-0.15,2.75-0.26,4.12-0.45c5.09-0.68,7.87-4,9.54-8.51
			c0.11-0.3-0.03-0.74-0.17-1.07c-5.47-13.15-10.96-26.3-16.44-39.45c-1.63-3.92-3.27-7.83-4.9-11.75
			C27.91,106.85,27.82,106.58,27.67,106.18z"/>
		<path d="M239.5,160.93c-5.56,0-11.05,0-16.58,0c0-18.47,0-36.89,0-55.37c5.53,0,11.01,0,16.56,0c0,1.63,0,3.22,0,4.88
			c0.15-0.06,0.25-0.06,0.29-0.11c2.79-3.52,6.55-5.33,10.89-5.99c4.25-0.65,8.5-0.61,12.54,1.08c6.85,2.86,10.86,8.08,12.26,15.31
			c0.37,1.93,0.55,3.93,0.56,5.9c0.05,11.13,0.03,22.25,0.03,33.38c0,0.29,0,0.58,0,0.92c-5.55,0-11.04,0-16.66,0
			c0-0.35,0-0.68,0-1.02c0-10.25,0.01-20.51-0.02-30.76c0-1.07-0.14-2.16-0.41-3.19c-0.95-3.75-3.77-6.11-8-6.56
			c-4.7-0.5-9.1,1.36-10.67,6.2c-0.51,1.58-0.74,3.31-0.75,4.97c-0.07,9.76-0.03,19.52-0.03,29.27
			C239.5,160.19,239.5,160.53,239.5,160.93z"/>
		<path d="M194.05,105.56c5.59,0,11.07,0,16.61,0c0,18.47,0,36.9,0,55.37c-5.52,0-11.01,0-16.61,0c0-1.61,0-3.19,0-5
			c-0.5,0.55-0.84,0.94-1.19,1.31c-2.72,2.86-6.13,4.34-9.98,4.93c-4.35,0.67-8.67,0.61-12.78-1.16c-6.67-2.88-10.64-8.03-12-15.13
			c-0.43-2.21-0.58-4.51-0.61-6.77c-0.08-6.29-0.04-12.58-0.03-18.87c0.01-7.14,4.18-12.71,10.85-14.29
			c1.84-0.44,3.79-0.41,5.83-0.61c0,0.56,0,0.9,0,1.24c0,10.28-0.01,20.56,0.01,30.85c0.01,3.28,1.01,6.13,3.83,8.09
			c6.38,4.44,15.14,0.44,15.9-7.27c0.1-1.01,0.15-2.03,0.15-3.05c0.01-9.52,0.01-19.05,0.01-28.57
			C194.05,106.28,194.05,105.94,194.05,105.56z"/>
	</g>
	<g>
		<path d="M285.1,17.37c1.11,0.2,2.23,0.36,3.32,0.62c7.38,1.75,12.67,6.29,16.56,12.59c3.37,5.45,4.48,11.5,4.19,17.82
			c-0.33,7.26-2.85,13.63-7.75,19.08c-8.63,9.62-20.91,10-29.09,6.33c-1.9-0.85-3.59-2.04-5.06-3.52c-0.3-0.3-0.6-0.61-1.03-1.05
			c0,9.18,0,18.17,0,27.21c-5.56,0-11.05,0-16.62,0c0-25.8,0-51.61,0-77.49c5.5,0,11.01,0,16.58,0c0,1.62,0,3.21,0,4.9
			c0.18-0.08,0.29-0.11,0.35-0.17c3.48-3.79,7.89-5.63,12.92-6.18c0.19-0.02,0.37-0.11,0.56-0.16
			C281.72,17.37,283.41,17.37,285.1,17.37z M292.53,46.62c0-2.65-0.47-4.94-1.51-6.83c-2.33-4.25-6.02-6.38-10.78-6.61
			c-5.32-0.26-9.74,1.57-12.36,6.41c-2.29,4.23-2.33,8.77-0.47,13.16c3.58,8.44,14.3,9.03,19.83,5.07
			C291.08,55.06,292.53,51.18,292.53,46.62z"/>
		<path d="M214.17,17.37c1.2,0.2,2.41,0.33,3.59,0.62c11.26,2.74,18.13,9.95,21.03,21.02c1.17,4.45,1.12,8.99,0.37,13.52
			c-0.12,0.71-0.48,0.77-1.07,0.77c-12.38-0.01-24.75-0.01-37.13-0.01c-0.37,0-0.75,0-1.25,0c0.6,1.81,1.55,3.23,2.84,4.42
			c1.46,1.35,3.2,2.21,5.12,2.69c3.1,0.77,6.21,0.88,9.33,0.17c2.32-0.53,4.35-1.61,6.06-3.28c0.28-0.27,0.47-0.52,0.95-0.24
			c4.25,2.47,8.51,4.91,12.99,7.49c-1.34,1.45-2.55,2.93-3.93,4.22c-4.06,3.8-8.95,5.9-14.4,6.7c-6.32,0.93-12.59,0.69-18.57-1.67
			c-10.12-4-16.1-11.49-17.74-22.26c-1.05-6.94-0.23-13.69,3.37-19.85c4.66-7.98,11.6-12.7,20.8-13.99c0.68-0.1,1.36-0.22,2.04-0.33
			C210.44,17.37,212.3,17.37,214.17,17.37z M199.37,40.79c7.96,0,15.78,0,23.68,0c-0.88-3.04-2.33-5.64-5.16-7.1
			c-4.1-2.13-8.37-2.08-12.57-0.34C202.08,34.69,200.35,37.41,199.37,40.79z"/>
		<path d="M76.41,50.33c0,7.99,0,15.98,0,23.98c-5.6,0-11.08,0-16.62,0c0-18.5,0-36.96,0-55.48c5.5,0,10.99,0,16.6,0
			c0,7.96,0,15.95,0,23.93c0.07,0.02,0.14,0.04,0.21,0.06c0.54-0.77,1.08-1.54,1.61-2.32c4.77-6.96,9.54-13.92,14.28-20.9
			c0.35-0.52,0.72-0.71,1.34-0.71c5.85,0.02,11.7,0.01,17.55,0.01c0.28,0,0.56,0,1,0c-0.25,0.38-0.41,0.64-0.59,0.89
			c-6.28,8.64-12.56,17.28-18.87,25.9c-0.51,0.7-0.55,1.13-0.01,1.84c6.51,8.65,12.99,17.33,19.47,26c0.16,0.21,0.31,0.42,0.59,0.81
			c-0.4,0-0.67,0-0.93,0c-5.71,0-11.41-0.01-17.12,0.02c-0.62,0-0.99-0.19-1.36-0.69c-5.41-7.51-10.85-15-16.28-22.49
			c-0.22-0.3-0.45-0.6-0.67-0.9C76.55,50.3,76.48,50.32,76.41,50.33z"/>
		<path d="M132.03,72.91c5.3,2.61,11.01,3.19,16.84,2.99c1.36-0.02,2.22-0.12,2.73-0.2c0.15-0.09,0.37-0.1,0.59-0.13
			c5.8-0.81,10.99-2.96,15.26-7.05c1.27-1.22,2.38-2.6,3.63-3.98c-4.6-2.64-9-5.18-13.39-7.7c-0.56,0.49-1.04,0.95-1.56,1.36
			c-4.79,3.77-13.97,3.83-18.8,0.1c-1.65-1.27-2.8-2.91-3.56-5.01c13.17,0,26.22,0,39.3,0c0.94-4.8,1.01-9.51-0.17-14.14
			c-2.74-10.76-9.33-17.94-20.16-20.94c-1.44-0.4-2.95-0.56-4.43-0.84c-1.92,0-3.84,0-5.77,0c-0.65,0.11-1.29,0.23-1.94,0.33
			c-10,1.47-17.25,6.78-21.71,15.79c-2.96,5.96-3.46,12.37-2.33,18.84C118.19,61.78,123.42,68.68,132.03,72.91z M140.12,33.04
			c3.42-1.23,6.92-1.27,10.35-0.05c3.52,1.25,5.48,3.97,6.55,7.43c0.03,0.1,0,0.22,0,0.38c-7.84,0-15.66,0-23.58,0
			C134.49,37.13,136.48,34.34,140.12,33.04z"/>
	</g>
	<path class="st0" d="M62.9,96.47l70.07-2.48c0,0,17.61-0.79,17.61-28.82c0,28.04,17.61,28.82,17.61,28.82l70.07,2.48v0.07
		l-70.07,2.48c0,0-17.61,0.37-17.61,28.82c0-28.45-17.61-28.82-17.61-28.82L62.9,96.54"/>
</g>
</svg>
