<?xml version="1.0" encoding="utf-8"?>
<!-- Generator: Adobe Illustrator 26.0.0, SVG Export Plug-In . SVG Version: 6.00 Build 0)  -->
<svg version="1.1" id="Layer_1" xmlns:v="https://vecta.io/nano"
	 xmlns="http://www.w3.org/2000/svg" xmlns:xlink="http://www.w3.org/1999/xlink" x="0px" y="0px" viewBox="0 0 265.5 168.6"
	 style="enable-background:new 0 0 265.5 168.6;" xml:space="preserve">
<style type="text/css">
	.st0{fill:#FFC900;}
	.st1{fill:#482D20;}
</style>
<g>
	<path class="st0" d="M216.3,129.9l-14.6-21.4h-14.6v21.4h-13.4v-53h34.9c1.5,0,3,0,4.5,0.1c2.4,0.2,16.8,0.1,16.8,15.5
		c0,14.1-11.7,15.5-13.8,15.5l16.2,22H216.3z M208.9,86.7H187V99h21.6c0.5,0,2,0,3.5-0.4c4.2-1.2,4.4-4.7,4.4-5.8
		C216.4,86.8,211.1,86.7,208.9,86.7z"/>
	<path class="st0" d="M238,129.9v-53h13.4v53H238z"/>
	<path class="st0" d="M85.9,131.4c-2.8,0.1-11.3-1.6-11.3-1.6v-11.3l6.6,1.1c7.6,0.8,8.4-4.1,8.4-5.3V76.8h13.3V115
		C102.9,119.1,101.5,130.8,85.9,131.4z"/>
	<path class="st0" d="M114.2,129.9v-53h49.3V87h-35.7v11.3h34.7v10.1h-34.7v11.9h37.6v9.6H114.2z"/>
	<g>
		<path class="st0" d="M59.9,66.3H46.5l-24.1-53h15.1l15.6,38.6l15.7-38.6h15L59.9,66.3z"/>
		<path class="st0" d="M89.5,66.3v-53h13.4v53H89.5z"/>
		<path class="st0" d="M157.1,66.3l-14.6-21.4h-14.6v21.4h-13.4v-53h34.9c1.5,0,3,0,4.5,0.1c2.4,0.2,16.8,0.1,16.8,15.5
			c0,14.1-11.7,15.5-13.8,15.5l16.2,22H157.1z M149.6,23.1h-21.9v12.3h21.6c0.5,0,2,0,3.5-0.4c4.2-1.2,4.4-4.7,4.4-5.8
			C157.2,23.2,151.9,23.1,149.6,23.1z"/>
		<path class="st0" d="M226.2,66.3l-4.3-10.1l-27.2,0.1l-3.9,10h-15.2l25.7-53H216l25.5,53H226.2z M208.3,25.9l-8.9,21h18.3
			L208.3,25.9z"/>
	</g>
	<g>
		<g>
			<path d="M39.6,103.7c-9,0-17.9,0-26.8,0c0-0.1,0-0.3,0-0.4c0-8.6,0-17.2,0-25.8c0-0.5,0.1-0.6,0.6-0.6c1.6,0.2,3.2,0.2,4.8,0.5
				c5,1,9.3,3.3,13,6.8c3.5,3.3,5.9,7.2,7.3,11.8c0.5,1.6,0.7,3.3,1,4.9C39.5,101.8,39.5,102.8,39.6,103.7z"/>
			<path d="M40.4,104.7c9,0,17.9,0,26.9,0c0,0.2,0,0.4,0,0.5c0,8.5,0,17.1,0,25.6c0,0.6,0,0.6-0.6,0.6c-4.3,0-8.4-1.2-12.2-3.2
				c-4.8-2.6-8.5-6.4-11-11.3c-1.3-2.5-2.2-5.2-2.6-8C40.6,107.6,40.5,106.2,40.4,104.7z"/>
			<path d="M40.5,103.7c0-8.9,0-17.8,0-26.7c0.2,0,0.3,0,0.5,0c8.6,0,17.1,0,25.7,0c0.4,0,0.5,0.1,0.5,0.6
				c-0.1,5.7-1.9,10.8-5.3,15.4c-2.3,3.1-5.1,5.6-8.5,7.4c-2.2,1.3-4.6,2.2-7.1,2.7C44.4,103.5,42.5,103.8,40.5,103.7z"/>
			<path d="M39.5,104.7c0,8.9,0,17.7,0,26.6c-8.9,0-17.8,0-26.7,0C12.4,117.1,25,104.4,39.5,104.7z"/>
		</g>
	</g>
	<g>
		<path class="st1" d="M84.4,156.6l-3.6-5.1h-2.7v5.1H77v-11.5h3.2c0.6,0,1.3,0,1.9,0c0.5,0,2,0.1,2.8,1.5c0.2,0.3,0.4,0.9,0.4,1.7
			c0,1.4-0.7,2.4-2,2.9c-0.3,0.1-0.7,0.2-1.4,0.2l3.7,5.1H84.4z M84,147.1c-0.5-0.9-1.5-1-2.4-1h-3.5v4.5h2.7c0.3,0,0.6,0,0.9,0
			c0.8,0,1.7-0.1,2.3-0.8c0.2-0.2,0.4-0.6,0.4-1.3C84.4,148.2,84.3,147.6,84,147.1z"/>
		<path class="st1" d="M91.4,156.6v-11.5h7.5v1h-6.4v4.1h5.8v1h-5.8v4.4h6.8v1H91.4z M95.3,144.1h-0.9l1.6-2h1.7L95.3,144.1z"/>
		<path class="st1" d="M109.3,156.6h-1l-4.2-11.5h1.2l3.5,10l3.6-10h1.2L109.3,156.6z"/>
		<path class="st1" d="M119,156.6v-11.5h7.5v1h-6.4v4.1h5.8v1h-5.8v4.4h6.8v1H119z"/>
		<path class="st1" d="M132.8,156.6v-11.5h1.1v11.5H132.8z"/>
		<path class="st1" d="M140.5,156.6v-11.5h1.1v10.5h6.3v1H140.5z"/>
		<path class="st1" d="M153.6,156.6v-11.5h1.1v10.5h6.3v1H153.6z"/>
		<path class="st1" d="M174,155.2c-0.2,0.3-0.8,1-1.8,1.4c-0.4,0.1-0.9,0.3-1.8,0.3c-1.3,0-2.4-0.4-3.3-1.3
			c-0.7-0.8-1.6-2.2-1.6-4.7c0-0.6,0-2.9,1.5-4.6c0.2-0.2,0.7-0.8,1.6-1.1c0.4-0.1,1-0.3,1.9-0.3c0.8,0,2.6,0.1,3.8,1.9
			c0.5,0.7,1.1,2,1.1,4C175.3,152.3,174.9,154,174,155.2z M173,147c-0.1-0.1-0.5-0.6-1-0.8c-0.3-0.1-0.8-0.4-1.6-0.4
			c-2.8,0-3.8,2.7-3.8,5.1c0,0.4,0,2.8,1.4,4.1c0.7,0.6,1.5,0.9,2.4,0.9c1,0,1.8-0.3,2.5-1c1.3-1.4,1.3-3.7,1.3-4.1
			C174.1,150.4,174.1,148.4,173,147z"/>
		<path class="st1" d="M189.2,156.6l-6.7-9.9v9.9h-1.1v-11.5h1.1l6.8,9.8l-0.1-9.8h1.1v11.5H189.2z"/>
		<path class="st1" d="M211.6,151.1c-1.1,1.8-3.6,3.5-3.9,3.7c-0.8,0.6-1.5,1-1.5,1h5.8v0.9h-7.2v-0.9l0.2-0.1
			c0.3-0.2,0.7-0.4,1-0.7c0.7-0.5,1.3-1,2-1.5c0.1-0.1,1.2-0.9,1.8-1.6c0.4-0.4,1.5-1.5,1.5-3.3c0-0.5-0.1-1-0.3-1.4
			c-0.7-1.3-2.1-1.3-2.5-1.3c-1,0-2,0.4-2.5,1.4c-0.1,0.2-0.3,0.6-0.3,1.2c0,1,0.6,1.7,0.8,1.9l-1.3-0.2c-0.4-0.9-0.4-1.5-0.4-1.9
			c0-0.7,0.2-1.2,0.3-1.4c0.4-0.8,1.4-1.9,3.5-1.9c0.6,0,2.6,0.1,3.5,2c0.1,0.3,0.4,0.9,0.4,1.7C212.3,149.1,212.3,150,211.6,151.1z
			"/>
		<path class="st1" d="M224.4,155.8c-0.7,0.7-1.5,1.1-2.5,1.1c-0.3,0-1.2,0-1.9-0.6c-1.1-0.7-2.1-2.5-2.1-5.4c0-0.4-0.1-3.6,1.8-5.1
			c0.4-0.3,1.1-0.8,2.3-0.8c1.5,0,2.3,0.8,2.7,1.2c1.4,1.7,1.3,4.6,1.3,5C225.9,151.5,225.9,154.2,224.4,155.8z M224.2,147.4
			c-0.2-0.4-0.8-1.6-2.3-1.6c-0.4,0-1,0.1-1.6,0.7c-1.1,1.1-1.3,3-1.3,4.3c0,1.5,0.3,2.7,0.5,3.3c0.1,0.3,0.4,0.7,0.6,1
			c0.2,0.3,0.8,0.8,1.8,0.8c0.7,0,1.4-0.3,1.9-0.8c0.6-0.7,1.1-2,1.1-4C224.9,150.8,224.9,148.8,224.2,147.4z"/>
		<path class="st1" d="M238.5,151.1c-1.1,1.8-3.6,3.5-3.9,3.7c-0.8,0.6-1.5,1-1.5,1h5.8v0.9h-7.2v-0.9l0.2-0.1
			c0.3-0.2,0.7-0.4,1-0.7c0.7-0.5,1.3-1,2-1.5c0.1-0.1,1.2-0.9,1.8-1.6c0.4-0.4,1.5-1.5,1.5-3.3c0-0.5-0.1-1-0.3-1.4
			c-0.7-1.3-2.1-1.3-2.5-1.3c-1,0-2,0.4-2.5,1.4c-0.1,0.2-0.3,0.6-0.3,1.2c0,1,0.6,1.7,0.8,1.9l-1.3-0.2c-0.4-0.9-0.4-1.5-0.4-1.9
			c0-0.7,0.2-1.2,0.3-1.4c0.4-0.8,1.4-1.9,3.5-1.9c0.6,0,2.6,0.1,3.5,2c0.1,0.3,0.4,0.9,0.4,1.7C239.2,149.1,239.2,150,238.5,151.1z
			"/>
		<path class="st1" d="M252.2,155c-0.6,1.3-2.1,1.9-3.5,1.9c-1.9,0-2.9-0.9-3.4-1.6c-0.2-0.4-0.5-0.9-0.6-1.9l1.1-0.4
			c0,0.1,0,0.6,0.1,1.1c0.4,1.3,1.5,1.9,2.8,1.9c2.3,0,2.7-1.5,2.7-2.4c0-0.3,0-1.3-0.8-1.9c-0.6-0.5-1.4-0.5-2.2-0.5h-1.6v-0.9h1.4
			c0.6,0,0.8,0,1.1-0.1c1-0.1,1.4-0.5,1.7-0.9c0.3-0.5,0.3-1,0.3-1.2c0-0.5-0.1-0.8-0.2-1c-0.4-0.9-1.4-1.3-2.3-1.3
			c-1.8,0-2.5,1.3-2.6,1.9c0,0.1,0,0.3,0,0.6L245,148c0.3-1.2,0.8-2.3,2.1-2.8c0.3-0.1,0.9-0.3,1.7-0.3c0.9,0,1.8,0.2,2.5,0.8
			c1,0.8,1,2,1,2.4c0,1-0.4,1.9-1.3,2.2c-0.4,0.2-0.8,0.2-1.2,0.3c0.6,0,1.1,0.2,1.3,0.3c0.6,0.3,1.4,1,1.4,2.5
			C252.6,153.7,252.6,154.3,252.2,155z"/>
	</g>
</g>
</svg>
