<svg xmlns="http://www.w3.org/2000/svg" viewBox="0 0 595.3 553.8"  fill="#6e6e6e" xmlns:v="https://vecta.io/nano"><path d="M514 278.2c5.3 115.8-100.7 220.3-220 216.7C176 491.3 81 397.3 81.1 277c.1-119.6 96.7-215 216.5-216C422.8 60 519.5 168.8 514 278.2zm-18.1-.2C496 169.3 408 81 299.1 80.5c-110.4-.4-198.3 86.5-198.8 196.8-.4 109.9 87.3 198.2 197.3 198.7 109 .6 198.2-88.5 198.3-198zm-195 25.1l72.7-77.3c4.9-5.1 11-10.3 17.5-12.4 12.9-4.1 24.5.1 32.1 11.6 8 12.2 7.3 25-2.8 35.4L316.1 364.6c-11.6 11.2-26.1 11.2-37.7-.1L174.2 260.2c-11.4-11.8-10-28.2.8-39.2 11.4-11.5 27.7-12.4 40.4-.4 23.6 22.2 46.5 45.1 69.7 67.7 4 3.9 8.1 7.6 15.8 14.8z"/></svg>