<svg xmlns="http://www.w3.org/2000/svg" xmlns:xlink="http://www.w3.org/1999/xlink" viewBox="0 0 917.1 1090" xmlns:v="https://vecta.io/nano"><defs><path id="A" d="M0 0h917.1v1090H0z"/></defs><clipPath id="B"><use xlink:href="#A"/></clipPath><path d="M807 355.7c4-5.4 8.6-8.5 15.3-4.5.7.4 2.4-.7 3.6-1.3 1.2-.7 2.2-2 3.4-2.3 5.3-1 10.2 2.4 16.2-.2 5.3-2.3 9.7 3.9 13.4 8.1 10.5 11.9 16.5 26.3 20.8 41.2 10.3 35.6 14.6 72 9.6 108.7-5 36.8-21.9 68-49.2 93.7-21.8 20.5-46.8 35.6-74.3 46.7-5.4 2.2-5.8 5-5.4 10.2 2.8 36.8-22.2 68.5-59 75.4-7.7 1.5-8.2 2.1-6.2 9.8 6.6 26.4-5.1 56.3-27 72.4-17.9 13.2-37.3 19.1-59.3 17.3-5-.4-7 1.4-6.9 6.8l-.1 85.5c-.2 16.7-1.4 33.4-2.5 50.1-.3 5.1 1.4 6.8 6.3 7.8 12 2.5 24.1 5.2 35.8 8.8 9 2.8 13.5 11.2 12 19.5-1.6 9.1-9.6 16.4-18.8 16.2-9.1-.2-18.3-1.1-27.3-2.4-12.3-1.8-24.8-3.7-36.8-6.8-8.9-2.3-13.6-9-13.8-18.6l-2-114.7-.2-81.9c0-4.5-1.6-9-2.5-13.6-.6 0-1.2-.1-1.7-.1-.8 1-1.7 1.8-2.3 2.9-11.9 20-28.9 33.1-52 37.4-14.5 2.7-28-1.6-41-7.2-17.4-7.5-32.2-18.5-43.3-34.7-1.1 1.2-1.9 1.8-2.3 2.6-9.3 16.2-23.4 26.7-40.3 33.8-4.3 1.8-6.3 3.8-6.2 9.1l-.1 123.8c-.1 14.3-1.1 28.7-2.3 43-.8 9.2-7.7 14.1-15.6 16.1-11.4 2.9-23 4.5-34.6 6.3-8.2 1.3-16.5 2.5-24.9 2.9-9.8.5-14.4-2.4-16.8-9.2-2.7-7.7-.4-16.9 7-21 9-4.9 18.7-8.8 28.4-11.9 15.7-4.9 16-4.4 15.4-20.8l-4.1-96.2-2-38.2c-.2-4-1.7-5.8-5.3-7.4-21.3-9.7-40.3-22.6-52.3-43.5-1.8-3.2-3.5-3.3-6.7-1.8-18.6 8.8-36.7 6.7-52.8-5.5-15.5-11.7-21.3-28.3-18.9-47.6.5-3.7 1.6-7.5 3.3-10.8 1.6-3.1.9-4.6-1.7-6.4-21.8-14.6-28.9-35.4-25.1-60.7.1-.4-.2-.8-.3-1.5-9.8-3.3-20-6-29.6-10.2-43.4-19.2-74.4-49.6-89-96.1-11.6-37-11.1-74-5-111.6 3.2-19.7 7.1-39.2 16.6-57 2.6-4.9 5.6-9.7 9.1-14 6.2-7.7 12.6-8.5 20.9-2.9 4.4-4.3 9.2-6.9 14.8-1.4.5.4 2.2-.1 3.2-.6 8.5-4.2 10.3-3.6 14.9 4.9.3.5.7.9 1 1.3.5.1 1 .4 1.2.3 3.7-2.3 7.5-4 11.5-.9 4.2 3.3 3.8 8 2.1 12.1-4.2 10.3-9 20.4-13.6 30.5C97 428 90.4 461.7 93.8 497.3c3.7 39.3 26.2 65.4 58.1 85.2.7.5 1.8.4 3.8.9-5-20.5-2.6-39.4 9.1-56.3 12.5-18 31.1-22 52.3-21l-3.4-12.7c-9.5-40.4 10.4-78.7 45.8-94.3 17.3-7.7 35.3-7.9 53.7-3.7 29.7 6.9 50.5 25.7 67.8 49.4.2.3.6.5 1.9 1.4 1.9-4.4 3.9-8.6 5.5-12.8 10.7-28.4 27.6-51.5 55.4-65.3 25.4-12.6 52.2-17.3 79.9-10.8 37.1 8.7 62.5 31.5 76.2 67.3 5.4 14.1 8.2 28.5 8.2 44.4l12.1-4.1c21.5-7.3 43.4-12.8 66.1-8.6 35.9 6.6 59.2 28.3 69.7 63.3 6.1 20.5 7.9 41.4 4.5 62.7-.1.7.2 1.5.6 3.3 5-3.1 9.6-5.6 13.8-8.8 21.4-16.2 38.7-35.8 46.3-62.1 4.4-15.2 3.4-31.2 1.9-46.9-2.9-30.9-13.3-59.5-26.3-87.4-1.6-3.4-3.1-6.9-4.5-10.4-2.1-5.4-3.6-10.8 1.2-15.6 4.6-4.7 9-.9 13.5 1.3M196.6 650.3l-33.5-6.8c-.9-.2-3.2 2.4-3.3 3.7-1.2 20.3 3.7 40 25.4 52 5.2 2.9 4.8 5.5 2.9 10.5-2.5 6.7-4.8 14.3-4.4 21.3 2.3 33.8 38 51.6 66.8 33.7 4.2-2.6 6.3-1.4 8.5 2.5a158.02 158.02 0 0 0 9.1 13.9c12.2 16.4 29.5 25.8 47.6 33.7 20.6 8.9 41 7.8 60.5-3.4 13-7.5 23.3-17.8 29.6-31.8 2.8-6.2 5.2-6.2 8.9-.8 3.1 4.4 6.1 8.9 9.9 12.6 12.6 12.5 27 22 44.1 27.2 12.1 3.7 24.3 4.6 36.3 0 19.9-7.6 33.2-22 41.5-41.3.8-1.9 2.6-3.5 4-5.2 1.5 1.9 3.3 3.7 4.3 5.8 3.1 6.2 5.1 13.1 9 18.7 20.4 29.1 55.5 34.6 85 20.8 23.1-10.8 38.3-28.6 40.4-54.9.7-9.1-1.5-18.5-2.6-27.8-.8-6.5.1-7.6 6.4-8.7 6-1.1 12.2-2.2 17.9-4.2 27.6-9.5 44.1-34.6 42.5-63.7-.3-5.4-2.1-6.9-7.5-5.5-7.1 1.9-14.4 3.2-21.6 4.4-3.3.6-4.3 1.8-3.7 5.2 1.7 8.3.2 16.3-4.1 23.6-1.1 1.9-3.4 3-5.2 4.5-.2-2.3-.5-4.6-.6-6.9 0-.7.6-1.4.9-2.2 3.4-8.8 4.3-18-1.1-25.8-4.4-6.3-10.4-12-16.8-16.5-9.4-6.7-9.8-6.2-2-14 13-12.9 22.3-27.4 20.8-46.9-.1-1.4 1.8-3 2.8-4.4 1.2 1.3 3.4 2.6 3.4 4 .2 5.3.1 10.8-.7 16-.6 4.1.7 5.5 4.3 4.5 8.4-2.2 16.9-4.3 25.1-7.2 2.3-.8 4.6-4.3 5.1-6.9 3-16.8 2.3-33.7-.9-50.5-3.3-17.7-9.5-34-22.5-47.1-24.3-24.8-53.6-29.1-85.7-21.2-12.9 3.2-25.4 7.9-38.1 11.8-1.5.5-3.8.6-4.7-.2-.9-.9-.9-3.1-.8-4.8.2-4.5 1.6-9.2.8-13.5-1.8-10.1-3.7-20.4-7.1-30.1-6.6-18.7-17-35.2-33.3-47-26.2-19.4-56.2-24.4-88-16.7-27.3 6.6-50.4 20.3-64.6 45.3-7.6 13.4-13 28.1-19.1 42.3-2.2 5.2-4.3 5.9-7.9 1.7-3.1-3.6-6-7.5-9-11.1-15.2-18.5-32.6-33.8-56.4-40.1-16.9-4.5-33.9-5.6-50.3 1.4-34.8 14.8-52.8 49.1-45 86.1 1.9 9 4.6 18.3 13.8 23.4 2 1.1 4 2.9 5.2 4.8.9 1.3.4 3.5.5 5.3-1.6-.2-3.3-.2-4.8-.6-.9-.3-1.6-1.2-2.2-1.9-13-14.1-49.7-9.9-62.2 9.5-10.8 16.9-12.1 35-7 53.9.3 1.2 1.2 2.9 2.2 3.3 10.2 3.6 20.4 6.9 31.5 10.5 0-8.4-.2-14.9.2-21.3.1-1.4 2.1-2.8 3.3-4.1.9 1.7 2.8 3.4 2.7 5-1.5 18.4 6.3 32.8 19.5 44.7 10.6 9.5 10.7 9.4-2.9 15.3-14.4 6.2-20.2 16.4-17.6 31.9.8 4.6 2.9 9 3.9 13.6.3 1.5-1 3.3-1.6 5-1.4-.7-3.1-1.2-4.3-2.3-1-.9-1.4-2.4-1.9-3.7-4.5-10.3-5-21-1.6-32.3m500.3-19.4l19.7 19c.7.7 2.2 1 3.2.8 10.5-2 21.4-3 31.5-6.5 33-11.6 62.8-28.4 87.8-53.5 31.3-31.4 46.1-69.4 45.2-113.1-.4-21-3.7-42-7-62.8-2.9-18.2-9.7-35.3-20.2-50.7-2.2-3.2-5-6.3-7.9-8.8-3-2.6-6.2-1-5.8 2.9.5 4.7 2.1 9.2 2.9 13.9.4 2.4 0 4.9 0 7.4-2-1.7-4.6-3-6-5.1-1.5-2.2-1.8-5.2-2.6-7.9s-1.1-5.5-2.3-8c-.7-1.6-2.6-2.6-4-3.9-1 1.8-2.4 3.4-2.9 5.3-.4 1.4.4 3.1.8 4.6 1 4.3 2.5 8.5 3.1 12.8.3 2.1-1.3 4.3-2 6.5-1.5-1.6-3.7-2.9-4.3-4.7-1.8-5.5-2.6-11.3-4.7-16.6-.9-2.4-4.1-3.9-6.2-5.8-.6 3-1.3 6-1.7 9.1-.1.8.9 1.7 1.3 2.6 1.5 3.5 3.3 6.8 4.3 10.4.5 1.6-.7 3.7-1.1 5.6-1.7-1-3.8-1.8-4.9-3.2-1.4-1.9-1.8-4.4-2.9-6.5-2.3-4.4-4.7-8.7-7.4-12.8-.8-1.1-2.9-1.3-4.5-1.9-.3 1.6-1.1 3.4-.7 4.8 1.3 4 2.9 7.8 4.6 11.6 12.9 28.4 23.4 57.4 27.4 88.6 4.7 36.4-2.4 68.8-27.8 96.4-22.5 24.4-49.4 40.4-82.8 44.2-1.8.2-4.1.9-5.1 2.3-5.8 7.6-11.4 15.5-17 23M119.7 360.3l-2.1-1.2c-9.1 2.7-10.2 12.9-15.9 19.1-4.7-4.8-1.2-8.6-.6-12.4.6-3.5 1.1-7 1.4-10.5.1-1-.8-2.8-1.4-2.9-1.2-.1-2.9.4-3.5 1.3-2.2 3.4-4.5 6.9-6 10.7-1.7 4-2.3 8.5-3.9 12.5-.5 1.2-2.7 1.7-4.1 2.5-.7-1.5-2.1-3.1-2-4.5.2-2.5 1.4-5 2-7.5 1-4.8 1.9-9.7 2.8-14.6l-2.1-.9c-1.5 1.4-3.5 2.5-4.3 4.2-2.6 5.7-4.5 11.7-7 17.5-.7 1.6-2.3 2.7-3.6 4-.7-1.8-2.1-3.7-2-5.5.2-3.3 1.8-6.6 2-9.9.2-3.2-.7-6.4-1-9.6l-8.7 5.1c-.5.3-.8.9-1 1.4-4.5 9.1-9.9 17.8-13.3 27.3-8.1 22.4-10 46.1-12.5 69.6-3 28.8 1.4 56.4 10.7 83.4 14.5 42.1 44.5 69.8 85 85.8 18.3 7.2 38.5 9.5 57.2 16 15.2 5.3 22.4-6.6 33-10.5-5.5-7.5-10.2-14.5-15.6-21.1-2-2.5-5.2-5.2-8.1-5.7-29.3-4.9-54.3-17.4-75.9-38.3-24.9-24.2-33.4-54.1-33.5-87.1 0-34.6 9.6-67.1 25.4-97.8 3.5-6.5 5.8-13.6 8.6-20.4m442.2 446.5c-.2 2.2-.4 3.3-.4 4.4l.3 145.2c.1 11.9.5 23.9 1.2 35.8.9 14.6 2.9 17.8 17.3 20.2 17.6 2.9 35.5 4.5 53.3 6.1 7.2.7 11.7-3.5 12.8-9.9 1-6-2-10.7-9.1-12.6-12.8-3.4-25.7-6.4-38.7-9.2-5.5-1.2-7.1-4.1-6.7-9.3l2.2-36.4 4.7-108c.1-1.5-1.7-3.7-3.1-4.5-7.4-4.2-15.1-7.9-22.3-12.3-4-2.2-7.2-5.8-11.5-9.5M319.6 824l2.1 36.9 4.6 105c.6 16.5-.1 16.2-16 20.7-9.3 2.6-18.5 5.9-27.4 9.8-7.1 3.1-10 9.4-8 15.5 2.4 7.2 8.7 5.4 13.7 4.9 12.8-1.4 25.6-3.4 38.4-5.4 5.9-.9 11.7-2.2 17.4-3.9 6-1.8 9.1-5.8 9.6-12.7 3.7-54.5 3.8-109 2.1-163.6-.1-3.8-1.4-4.6-5-4.4-6.9.3-13.9.1-20.8-.3-3.5-.3-6.8-1.6-10.7-2.5M37.2 314c-2-1.5-3.4-2.1-3.6-2.9-.3-1.2-.2-3.2.6-3.8 5.7-4.9 11.6-9.7 17.5-14.3.7-.5 2.5-.5 3.2 0s1.3 2.7.9 3c-6 6-12.3 11.9-18.6 18m216.6-28.2c-.3 3.2-.2 6.4-1 9.5-.3 1.3-2.2 2.3-3.4 3.4-.9-1.2-2.5-2.4-2.6-3.6-.2-5.6-.2-11.2.4-16.7.2-1.7 2.4-3.1 3.7-4.7 1.1 1.9 2.6 3.6 3.1 5.6.5 2.1-.1 4.3-.2 6.5M457.2 241l5.9-20.2c.3-.8 2.8-1.9 3.3-1.6 1.2 1 2.9 2.9 2.6 4-1.8 6.6-4 13.2-6.4 19.7-.3.9-2.1 1.3-3.2 1.9a74.27 74.27 0 0 1-2.2-3.8m-84-161c.2-3.2 0-6.4.7-9.4.4-1.6 2.2-2.8 3.4-4.2 1.2 1.6 3.4 3.2 3.4 4.8-.1 5.7-.8 11.4-1.6 17.1-.2 1.3-2.1 2.3-3.2 3.5-1-1.3-2.5-2.6-2.8-4-.5-2.5-.1-5.1-.1-7.7.1-.1.2-.1.2-.1m-256.3 87.8c-.5.6-1.3 2.4-2.6 2.8-.9.3-3.2-1.3-3.4-2.4-1.3-6.4-2.3-12.8-3-19.2-.1-1 1.7-2.3 2.7-3.4 1.4 1.2 3.7 2.1 4 3.5 1 5.8 1.5 11.7 2.3 18.7" clip-path="url(#B)"/><path d="M175.2 120c2.9 2.2 4.2 2.8 5 3.8 3.4 4.6 6.9 9.3 9.9 14.2.7 1.1-.3 3.3-.6 5-1.7-.5-4.1-.5-5-1.7-3.4-4.4-6.4-9.1-9.2-13.9-.8-1.5-.1-3.9-.1-7.4M837 304c6.3 2.3 11.9 4.2 17.3 6.6 1 .4 1.9 3.3 1.4 4.2-.6 1-3.1 2-4.3 1.6-5.2-1.7-10.4-3.7-15.4-6-1.2-.6-1.8-2.6-2.7-3.9l3.7-2.5M239 109.3c.4-3.1.4-6.3 1.2-9.3.4-1.4 2-2.6 3-3.8 1.2 1.4 3.3 2.8 3.3 4.2-.1 5.3-.7 10.6-1.6 15.8-.2 1.3-2 2.4-3.1 3.6-1-1.5-2.5-2.9-2.9-4.6-.4-1.8.2-3.9.3-5.9h-.2zm434.6 25.2c1-6.5 1.6-11.6 2.7-16.6.2-1.1 2.4-2.9 3-2.7 1.3.5 3.3 2.2 3.2 3.3-.6 5.9-1.5 11.8-2.7 17.5-.2 1-3 2.5-3.3 2.3-1.3-1.3-2.3-3.1-2.9-3.8m-14.1 170.6c-.3 2-.4 5.4-1.4 8.6-.4 1.4-2.6 2.3-3.9 3.4-.9-1.5-2.5-3.1-2.5-4.6 0-4.1.5-8.3 1.3-12.4.4-1.8 2.1-3.2 3.2-4.8 1.1 1.6 2.4 3.2 3.3 4.9.4 1 0 2.4 0 4.9M519.9 95.2c.2-2.6-.1-5.3.7-7.6.7-1.8 2.7-3.1 4.2-4.7.9 1.7 2.6 3.5 2.5 5.2-.2 4.5-1 9.1-2 13.5-.3 1.3-1.8 2.2-2.7 3.3-1-1.3-2.5-2.4-2.9-3.9-.3-1.8.2-3.8.2-5.8h0m-208.7 180c-2.8-2.2-4-2.9-4.8-3.9-2.9-3.8-5.8-7.6-8.3-11.7-.7-1.2-.2-3.1-.2-4.7 1.8.3 4.2 0 5.1 1 3.3 3.7 6.2 7.8 8.7 12 .9 1.5-.1 3.9-.5 7.3m-.9-182.4c-2 5.5-3.7 10.5-5.8 15.4-.4.9-2.9 1.9-3.7 1.5-1-.5-2-2.6-1.7-3.8 1.1-4.8 2.5-9.6 4.3-14.2.6-1.5 2.6-2.4 4-3.6.9 1.6 1.8 3.1 2.9 4.7" clip-path="url(#B)"/><path d="M130.4 334.2c-.2 2.8.1 5.6-.6 8.3-.3 1.3-2.3 2.2-3.5 3.3-1.1-1.2-3-2.5-3-3.7 0-5.3.4-10.7 1.1-16 .1-1.1 2.1-2.7 3.1-2.7 1.1.1 2.6 1.8 2.8 3 .4 2.6.1 5.3.1 7.8M461.7 64.1c2.6 4.1 1.2 17.5-2.4 20.5-.8.7-3.9.1-4.5-.8-2-3 3.5-17.9 6.9-19.7m155.6 43.2c-3.8 5.4-7.4 10.5-11.3 15.5-.4.5-2.7.4-3.1-.2-.6-1-1.1-2.9-.6-3.8 2.6-4.7 5.4-9.3 8.3-13.7.6-.9 2.5-1.5 3.5-1.2 1.2.4 1.9 1.9 3.2 3.4m-79.9 138.1c0 2.4.3 4.8-.1 7.1-.2 1.3-1.5 3.1-2.6 3.3-1 .2-3.4-1.5-3.4-2.3.2-6.3.7-12.5 1.3-18.7 0-.5 1.9-1.4 2.3-1.1 1 .7 2.3 1.8 2.5 2.8.3 2.9.1 5.9 0 8.9h0z" clip-path="url(#B)"/><path d="M808.7 184l-8.2 16.2c-.3.6-2.5.9-3 .4-.9-.8-1.9-2.5-1.5-3.4a171 171 0 0 1 6.7-15.2c.4-.8 2.5-1.4 3.5-1.1.9.4 1.5 1.9 2.5 3.1m-30.1 177.6c0 2.6.3 5.2-.1 7.7-.2 1-1.6 2.5-2.5 2.6-.8.1-2.5-1.4-2.6-2.4-.6-4.9-1.1-9.8-1-14.8 0-1.5 1.9-3 3-4.5 1.1 1.6 2.7 3.1 3.2 4.8.4 2.1 0 4.4 0 6.6m-180.5-74.7c-.3-1.8-1.6-4.4-.8-5.4 3.1-4.3 6.7-8.2 10.5-12 .4-.4 3 1.3 4.5 2.1l-11.7 15.8c-.8-.2-1.6-.4-2.5-.5m-410.6 34.9c-1.8.4-4.6 1.6-5.3.9-3.6-3.8-7-8-9.9-12.4-.5-.7 1.6-3.1 2.4-4.7l13.2 13.9c-.1.8-.3 1.6-.4 2.3m681.9-81.5c1.3.9 3.1 1.6 3.4 2.8.3 1.1-.5 3.4-1.5 3.8-4.4 2.1-9 3.9-13.7 5.4-1.1.4-2.8-.8-4.2-1.2.6-1.3.8-3.2 1.7-3.8 4.5-2.5 9.2-4.5 14.3-7m-817-11.8c-2.3.4-4.5 1.6-5.8 1-4.1-2-8-4.4-11.7-7-.9-.7-1.6-3-1.2-4 .4-.9 2.9-1.9 3.8-1.5 4.5 2.5 8.8 5.4 13.1 8.2.5.4.7 1.3 1.8 3.3m365.5 3.9c0-2.2-.4-4.4.1-6.5.3-1.4 1.9-2.5 2.9-3.7.9 1.1 2.4 2.2 2.5 3.4.4 4.5.6 9.1.4 13.6-.1 1.3-1.9 2.5-2.9 3.7-1.1-1.4-2.7-2.6-3.1-4.1-.5-2-.1-4.3-.1-6.5 0 .1.1.1.2.1m-55.4 22.2L358 251c-1.4-1.6-3-3.3-3.8-5.3-1.1-2.6-1.6-5.4-2.3-8.1 2.5 1.5 5.1 2.8 7.3 4.6 2.1 1.8 4 4 5.1 6.5.5 1.1-.9 3.3-1.8 5.9m371.6-93.3c-.4-1.6-1.7-3.7-1.2-4.6 2.5-3.9 5.5-7.6 8.7-11.1.4-.5 3 1 4.5 1.6l-9.8 14.7-2.2-.6m-12.9 183.2c-.2-1.7-1.3-4.1-.5-5.1 2.7-3.4 5.9-6.4 9.1-9.3.7-.6 2.4-.7 3.2-.3s1.7 2.5 1.5 2.8c-3.5 4.3-7.3 8.4-10.9 12.5-.8-.1-1.6-.4-2.4-.6M461.8 675.2c-13.2-2.3-28.3-6-38.6-19.7-1.7-2.2-4-4.7-.8-7.2 3.5-2.6 4.6.9 6.3 2.9 15.3 17.5 45.7 25.2 68.3 2.7 1.6-1.5 4.9-3.7 5.7-3.1 3.4 2.5 1 5.2-.9 7.5-7.5 9.5-24.3 17-40 16.9m-16.4-49.7c-.1-7.6 6.7-14.8 14-15 6.6-.1 14.8 7.8 15 14.5.2 7-7.2 14.7-14.4 14.9s-14.5-7-14.6-14.4m6-1.8c1.2 5.4 5.2 10.2 8.5 8.9 2.9-1.2 4.9-4.8 7.3-7.3-2.8-2.4-5.2-6-8.4-6.9-1.9-.5-4.9 3.4-7.4 5.3m-43-31.3c-3.6 1.9-5.7 3.9-7.6 3.7-1.5-.1-2.8-2.9-4.2-4.5 1.8-1.5 3.4-3.9 5.4-4.1 1.4-.2 3.2 2.4 6.4 4.9m111.1 6.4c-2.6-2.9-5.1-4.5-5.1-6 0-1.6 2.4-4.3 4-4.5 1.4-.2 4.1 2.1 4.5 3.8.4 1.4-1.6 3.4-3.4 6.7" clip-path="url(#B)"/></svg>