<svg xmlns="http://www.w3.org/2000/svg" viewBox="0 0 1000 497.9"  xmlns:v="https://vecta.io/nano"><g fill="#fb1787"><path d="M337.7 310.7c0 109.7-59.5 171.1-132.9 171.1-41.4 0-76.5-13.8-98.4-50.1l2.5 38.9H13.1V16.1h100.3v176.7c21.9-30.7 53.9-47 92.7-47 72.1.1 131.6 52.1 131.6 164.9zm-100.3 8.1c0-43.9-26.3-69.6-62.7-69.6s-63.9 24.4-63.9 69.6c0 48.3 27.6 72.7 63.9 72.7 35.2 0 62.7-25 62.7-72.7z"/><path d="M567.7 382.1v88.4c-13.2 6.3-33.8 11.3-64.5 11.3-80.8 0-125.3-47-125.3-123.5V250.5h-57.7v-84c63.3-8.1 65.2-26.3 70.2-87.1h87.7v77.7H564v93.4h-85.9v80.9c0 45.1 22.6 59.5 52.6 59.5 13.2 0 25.7-2.5 37-8.8z"/><path d="M846.6 280v190.5h-97.8l.6-46.4c-14.4 35.7-47.6 57.7-92.8 57.7-56.4 0-94-33.8-94-92.8 0-62 46.4-96.5 126-96.5 26.3 0 44.5 2.5 57.7 6.9-1.9-41.4-25.7-52.6-67.1-52.6-37 0-68.3 7.5-97.8 25.1v-98.4c33.8-18.8 74.6-28.2 121.6-28.2 80.9-.1 143.6 36.3 143.6 134.7zm-100.3 68.9c-11.3-4.4-23.8-5.6-36.3-5.6-28.8 0-47 10.6-47 31.3 0 18.2 11.9 28.8 34.5 28.8 20 0 48.8-13.1 48.8-54.5z"/></g><path d="M859.1 419.1c0-33.2 21.3-58.3 63.9-58.3s63.9 25.1 63.9 58.3c0 37.6-24.4 62.7-63.9 62.7-38.2 0-63.9-25.1-63.9-62.7z" fill="#202c49"/></svg>